<svg xmlns="http://www.w3.org/2000/svg" height="64" viewBox="0 0 165.97 64" width="165.97">
    <path d="m1107.01 495.96a6.151 6.151 0 0 0 -3.66-.928c-.45 0-.96.02-1.5.059a8.634 8.634 0 0 0 -1.5.226v11.422h1.58v-4.3h1.26a10.386 10.386 0 0 0 2.13-.2 4.6 4.6 0 0 0 1.61-.644 2.971 2.971 0 0 0 1.01-1.154 3.763 3.763 0 0 0 .35-1.715 3.189 3.189 0 0 0 -1.28-2.766zm-.63 3.906a1.821 1.821 0 0 1 -.69.711 3.3 3.3 0 0 1 -1.1.367 9.093 9.093 0 0 1 -1.47.109h-1.19v-4.553c.36-.033.88-.05 1.55-.05a6.784 6.784 0 0 1 1.21.1 2.935 2.935 0 0 1 1 .359 1.909 1.909 0 0 1 .68.694 2.218 2.218 0 0 1 .26 1.1 2.434 2.434 0 0 1 -.25 1.163zm-13.09-3.456a4.857 4.857 0 0 0 -1.7-1.146 5.5 5.5 0 0 0 -2.06-.385 5.705 5.705 0 0 0 -2.1.385 4.906 4.906 0 0 0 -1.73 1.146 5.322 5.322 0 0 0 -1.17 1.9 8.233 8.233 0 0 0 0 5.252 5.339 5.339 0 0 0 1.17 1.9 4.89 4.89 0 0 0 1.73 1.145 5.705 5.705 0 0 0 2.1.385 5.5 5.5 0 0 0 2.06-.385 4.841 4.841 0 0 0 1.7-1.145 5.512 5.512 0 0 0 1.17-1.9 8.279 8.279 0 0 0 0-5.252 5.5 5.5 0 0 0 -1.17-1.9zm-.34 6.441a4.451 4.451 0 0 1 -.74 1.463 3.336 3.336 0 0 1 -1.17.928 3.525 3.525 0 0 1 -1.55.327 3.584 3.584 0 0 1 -1.55-.327 3.326 3.326 0 0 1 -1.18-.928 4.267 4.267 0 0 1 -.74-1.463 6.532 6.532 0 0 1 -.26-1.915 6.528 6.528 0 0 1 .26-1.915 4.258 4.258 0 0 1 .74-1.463 3.293 3.293 0 0 1 1.18-.928 3.837 3.837 0 0 1 3.1 0 3.314 3.314 0 0 1 1.17.928 4.441 4.441 0 0 1 .74 1.463 7.116 7.116 0 0 1 0 3.83zm-18.01-6.294h3.55v10.183h1.58v-10.185h3.56v-1.4h-8.69v1.406zm-37.6-1.406c-.29.493-.61 1.073-.94 1.74s-.68 1.366-1.01 2.1-.67 1.456-.98 2.19-.61 1.4-.87 2c-.26-.6-.55-1.269-.86-2s-.64-1.462-.98-2.19-.67-1.431-1.01-2.1-.65-1.25-.95-1.74h-1.38q-.15 1.254-.27 2.66c-.08.936-.16 1.9-.23 2.885s-.13 1.988-.19 3.009-.1 2.033-.14 3.037h1.55c.05-1.562.12-3.11.19-4.642s.18-2.957.3-4.273c.1.19.25.464.43.82s.37.761.58 1.212.42.931.66 1.439.45 1 .66 1.479.4.925.58 1.339.32.753.43 1.02h1.28c.11-.268.25-.607.43-1.02s.37-.86.58-1.339.43-.971.66-1.479.45-.988.66-1.439.4-.855.58-1.212.32-.63.43-.82c.12 1.314.22 2.739.29 4.273s.14 3.081.2 4.642h1.55q-.285-5.991-.83-11.591zm-8.88-8.635h15.38v-.023a8.647 8.647 0 0 0 8.69-8.571 8.793 8.793 0 0 0 -.71-3.391l-7.87-18.042a2.542 2.542 0 0 1 -.19-.942 2.4 2.4 0 0 1 2.4-2.378h3.97a2.376 2.376 0 0 0 0-4.752h-15.41a8.629 8.629 0 0 0 -8.67 8.569 8.792 8.792 0 0 0 .71 3.39l7.88 18.043a2.762 2.762 0 0 1 .2.943 2.4 2.4 0 0 1 -2.4 2.385h-3.98a2.385 2.385 0 0 0 -.1 4.769zm61.44-26.68h.87a2.4 2.4 0 0 1 2.42 2.377v24.28h17.32l.01-23.217a2.4 2.4 0 0 1 1.17-2.036c1.31-.789 3.3-1.525 3.3-3.317a2.411 2.411 0 0 0 -2.42-2.376c-.96 0-2.06-.15-2.06-1.431v-3.334c0-1.308-.98-3.034-3.63-2.087-5.6 4.084-11.46 6.507-17.18 6.842a2.18 2.18 0 0 0 -1.97 2.154 2.149 2.149 0 0 0 2.17 2.145zm-41.02 40.539c-.37-.937-.73-1.832-1.09-2.684s-.73-1.7-1.12-2.534h-1.45c-.4.833-.77 1.678-1.13 2.534s-.72 1.75-1.08 2.684-.74 1.929-1.12 2.969-.79 2.173-1.22 3.4h1.64l1.03-2.961h5.12c.17.5.34 1 .5 1.481s.34.978.52 1.48h1.74q-.66-1.832-1.23-3.4t-1.11-2.969zm-5.09 2.069q.51-1.457 1.02-2.819c.34-.909.71-1.782 1.09-2.618.37.836.72 1.708 1.06 2.618s.69 1.849 1.04 2.819zm21.45-1.105h4.73v-1.354h-4.73v-3.446h5.32v-1.388h-6.9v11.591h7.3v-1.389h-5.72zm-5.25-4.858a5.321 5.321 0 0 0 -1.98-1.087 8.628 8.628 0 0 0 -2.55-.36c-.45 0-.96.02-1.51.059a8.667 8.667 0 0 0 -1.49.226v11.24a8.766 8.766 0 0 0 1.49.226c.55.038 1.06.058 1.51.058a8.627 8.627 0 0 0 2.55-.359 5.335 5.335 0 0 0 1.98-1.087 4.829 4.829 0 0 0 1.29-1.84 6.881 6.881 0 0 0 .46-2.617 6.881 6.881 0 0 0 -.46-2.617 4.821 4.821 0 0 0 -1.29-1.842zm-1.04 7.762a4.4 4.4 0 0 1 -3.36 1.179c-.44 0-.79-.006-1.03-.017s-.42-.022-.52-.034v-8.863c.1-.011.27-.021.52-.033s.59-.017 1.03-.017a4.389 4.389 0 0 1 3.36 1.179 5.469 5.469 0 0 1 0 6.606zm71.33-7.686h3.56v10.183h1.58v-10.185h3.55v-1.4h-8.69v1.406zm51.09-43.88v-9.677l-8.49 4.835zm0 12.088v-9.665l-8.49 4.834zm-2.75 13.571a4.4 4.4 0 0 0 -2.14-.56 4.343 4.343 0 0 0 -2.13.56 3.994 3.994 0 0 0 -1.6 1.6 4.377 4.377 0 0 0 -.02 4.346 4.169 4.169 0 0 0 1.6 1.6 4.31 4.31 0 0 0 4.3 0 4.038 4.038 0 0 0 1.6-1.6 4.324 4.324 0 0 0 .57-2.163 4.4 4.4 0 0 0 -.58-2.183 4.05 4.05 0 0 0 -1.6-1.6zm.88 5.526a3.319 3.319 0 0 1 -1.28 1.292 3.451 3.451 0 0 1 -3.46 0 3.306 3.306 0 0 1 -1.28-1.292 3.55 3.55 0 0 1 .01-3.5 3.283 3.283 0 0 1 1.29-1.286 3.494 3.494 0 0 1 3.42 0 3.14 3.14 0 0 1 1.29 1.286 3.5 3.5 0 0 1 .01 3.5zm-1.86-.909a1.936 1.936 0 0 0 -.31-.355 1 1 0 0 0 -.32-.172 1.447 1.447 0 0 0 .91-.441 1.179 1.179 0 0 0 .33-.851 1.388 1.388 0 0 0 -.17-.663 1.154 1.154 0 0 0 -.43-.439 1.8 1.8 0 0 0 -.72-.185c-.11-.008-.59-.012-1.46-.012h-.94v4.605h.94v-1.894h.24a1.019 1.019 0 0 1 .64.2 3.044 3.044 0 0 1 .64.949l.39.748h1.15l-.55-.929a6.217 6.217 0 0 0 -.34-.561zm-.8-1.19a4.694 4.694 0 0 1 -1 .062h-.38v-1.258h.38a4.671 4.671 0 0 1 1 .063.623.623 0 0 1 .31.218.531.531 0 0 1 .11.342.581.581 0 0 1 -.42.573zm-60.07 22.2c-.29-.438-.56-.838-.83-1.2s-.48-.654-.66-.878a3.48 3.48 0 0 0 1.75-1.219 3.242 3.242 0 0 0 .6-1.973 3.186 3.186 0 0 0 -1.25-2.743 6.053 6.053 0 0 0 -3.63-.92c-.45 0-.96.02-1.5.059a8.38 8.38 0 0 0 -1.49.226v11.425h1.58v-4.533h1.86c.15 0 .29 0 .43-.017.21.254.44.554.7.9s.51.716.77 1.112.52.809.78 1.245.49.865.71 1.289h1.72a12.356 12.356 0 0 0 -.71-1.389c-.27-.48-.55-.94-.83-1.38zm-1.74-3.5a3.327 3.327 0 0 1 -1.1.317 11.686 11.686 0 0 1 -1.47.084h-1.13v-4.364c.36-.034.88-.05 1.55-.05a6.75 6.75 0 0 1 1.2.1 2.838 2.838 0 0 1 .98.351 1.918 1.918 0 0 1 .66.685 2.161 2.161 0 0 1 .24 1.088 2.208 2.208 0 0 1 -.24 1.128 1.665 1.665 0 0 1 -.69.666zm68.47-46.581 8.5 4.835v-9.678zm-.71 10.878 8.51-4.834-8.51-4.834zm8.51-16.928-8.51-4.832v9.679zm-19.14 1.207v9.678l8.5-4.835zm-43.95 47.366a4.768 4.768 0 0 0 -1.7-1.146 5.5 5.5 0 0 0 -2.06-.385 5.705 5.705 0 0 0 -2.1.385 4.906 4.906 0 0 0 -1.73 1.146 5.619 5.619 0 0 0 -1.17 1.9 8.233 8.233 0 0 0 0 5.252 5.638 5.638 0 0 0 1.17 1.9 4.89 4.89 0 0 0 1.73 1.145 5.705 5.705 0 0 0 2.1.385 5.5 5.5 0 0 0 2.06-.385 4.679 4.679 0 0 0 1.7-1.145 5.512 5.512 0 0 0 1.17-1.9 8.279 8.279 0 0 0 0-5.252 5.5 5.5 0 0 0 -1.17-1.895zm-.34 6.441a4.258 4.258 0 0 1 -.74 1.463 3.238 3.238 0 0 1 -1.17.928 3.525 3.525 0 0 1 -1.55.327 3.569 3.569 0 0 1 -1.55-.327 3.326 3.326 0 0 1 -1.18-.928 4.267 4.267 0 0 1 -.74-1.463 6.532 6.532 0 0 1 -.26-1.915 6.528 6.528 0 0 1 .26-1.915 4.258 4.258 0 0 1 .74-1.463 3.293 3.293 0 0 1 1.18-.928 3.837 3.837 0 0 1 3.1 0 3.217 3.217 0 0 1 1.17.928 4.249 4.249 0 0 1 .74 1.463 7.116 7.116 0 0 1 0 3.835zm36.47-54.444a4.325 4.325 0 0 0 -3.43 1.537c-2 1.729-4.54 3.148-9.72 4.72a2.388 2.388 0 0 0 -1.77 2.292v29.537h17.33v-35.706a2.4 2.4 0 0 0 -2.41-2.375zm-22.47 52.932h4.72v-1.354h-4.72v-3.446h5.31v-1.388h-6.9v11.591h7.31v-1.389h-5.72zm16.02-4.782h3.56v10.188h1.58v-10.185h3.55v-1.4h-8.69v1.406zm-2.28 8.774a5.91 5.91 0 0 1 -1.81.235 3.87 3.87 0 0 1 -1.66-.335 3.2 3.2 0 0 1 -1.18-.945 4.215 4.215 0 0 1 -.71-1.463 7.528 7.528 0 0 1 -.24-1.89 7 7 0 0 1 .27-1.932 4.107 4.107 0 0 1 .78-1.463 3.353 3.353 0 0 1 1.22-.92 3.922 3.922 0 0 1 1.61-.318 4.518 4.518 0 0 1 .84.076 5.35 5.35 0 0 1 .77.192q.345.117.63.234a2.256 2.256 0 0 1 .42.218l.46-1.338c-.12-.073-.24-.14-.36-.2a4.922 4.922 0 0 0 -.68-.268 7.446 7.446 0 0 0 -.98-.234 7.156 7.156 0 0 0 -1.26-.1 5.508 5.508 0 0 0 -2.09.4 4.963 4.963 0 0 0 -1.71 1.171 5.5 5.5 0 0 0 -1.16 1.9 7.337 7.337 0 0 0 -.44 2.584 8.1 8.1 0 0 0 .39 2.584 5.2 5.2 0 0 0 1.08 1.9 4.668 4.668 0 0 0 1.68 1.171 5.682 5.682 0 0 0 2.17.4 9.218 9.218 0 0 0 2.3-.284 5.726 5.726 0 0 0 .73-.242 2.479 2.479 0 0 0 .41-.21l-.41-1.337a8.3 8.3 0 0 1 -1.07.419zm-19.67-47.511v.007c-4.12-1.125-8.88-1.129-12.7.963a14.357 14.357 0 0 0 -8.3 12.883v1.266a14.416 14.416 0 0 0 8.24 12.9c7.47 2.7 12.19 1.945 19.34-.272a1.519 1.519 0 0 0 -.46-2.973h-.13c-2.19.19-4.55.567-6.73.567a5.828 5.828 0 0 1 -5.33-3.529 14.075 14.075 0 0 1 -.95-3.04.949.949 0 0 1 .96-.945h14.43a1.916 1.916 0 0 0 1.92-1.914v-2.242a14.312 14.312 0 0 0 -10.29-13.666zm-.32 12.1a.962.962 0 0 1 -.96.945v.006h-5.28a.968.968 0 0 1 -.97-.951v-.048a31.8 31.8 0 0 1 2.33-6.915c.93-1.606 1.7-1.617 2.54 0a41.17 41.17 0 0 1 2.33 6.915h.01zm-57.18-11.994h-15.27a1.622 1.622 0 0 0 -.27 3.223l6.92 1.092a3.355 3.355 0 0 1 2.84 3.289v1.923h-8.19c-4.77 0-8.66 2.794-8.66 9.414s3.89 9.629 8.66 9.629h3.38l4.81-1.43v1.43h14.45v-20a8.644 8.644 0 0 0 -8.67-8.568zm-5.78 23.328c-2.1-.626-6.01-2.97-6.01-4.758s3.89-4.132 6.01-4.757z" fill="#2b2b2b" fill-rule="evenodd" transform="translate(-1026.03 -443)"/>
    <path xmlns="http://www.w3.org/2000/svg" d="m1107.01 495.96a6.151 6.151 0 0 0 -3.66-.928c-.45 0-.96.02-1.5.059a8.634 8.634 0 0 0 -1.5.226v11.422h1.58v-4.3h1.26a10.386 10.386 0 0 0 2.13-.2 4.6 4.6 0 0 0 1.61-.644 2.971 2.971 0 0 0 1.01-1.154 3.763 3.763 0 0 0 .35-1.715 3.189 3.189 0 0 0 -1.28-2.766zm-.63 3.906a1.821 1.821 0 0 1 -.69.711 3.3 3.3 0 0 1 -1.1.367 9.093 9.093 0 0 1 -1.47.109h-1.19v-4.553c.36-.033.88-.05 1.55-.05a6.784 6.784 0 0 1 1.21.1 2.935 2.935 0 0 1 1 .359 1.909 1.909 0 0 1 .68.694 2.218 2.218 0 0 1 .26 1.1 2.434 2.434 0 0 1 -.25 1.163zm-13.09-3.456a4.857 4.857 0 0 0 -1.7-1.146 5.5 5.5 0 0 0 -2.06-.385 5.705 5.705 0 0 0 -2.1.385 4.906 4.906 0 0 0 -1.73 1.146 5.322 5.322 0 0 0 -1.17 1.9 8.233 8.233 0 0 0 0 5.252 5.339 5.339 0 0 0 1.17 1.9 4.89 4.89 0 0 0 1.73 1.145 5.705 5.705 0 0 0 2.1.385 5.5 5.5 0 0 0 2.06-.385 4.841 4.841 0 0 0 1.7-1.145 5.512 5.512 0 0 0 1.17-1.9 8.279 8.279 0 0 0 0-5.252 5.5 5.5 0 0 0 -1.17-1.9zm-.34 6.441a4.451 4.451 0 0 1 -.74 1.463 3.336 3.336 0 0 1 -1.17.928 3.525 3.525 0 0 1 -1.55.327 3.584 3.584 0 0 1 -1.55-.327 3.326 3.326 0 0 1 -1.18-.928 4.267 4.267 0 0 1 -.74-1.463 6.532 6.532 0 0 1 -.26-1.915 6.528 6.528 0 0 1 .26-1.915 4.258 4.258 0 0 1 .74-1.463 3.293 3.293 0 0 1 1.18-.928 3.837 3.837 0 0 1 3.1 0 3.314 3.314 0 0 1 1.17.928 4.441 4.441 0 0 1 .74 1.463 7.116 7.116 0 0 1 0 3.83zm-18.01-6.294h3.55v10.183h1.58v-10.185h3.56v-1.4h-8.69v1.406zm-37.6-1.406c-.29.493-.61 1.073-.94 1.74s-.68 1.366-1.01 2.1-.67 1.456-.98 2.19-.61 1.4-.87 2c-.26-.6-.55-1.269-.86-2s-.64-1.462-.98-2.19-.67-1.431-1.01-2.1-.65-1.25-.95-1.74h-1.38q-.15 1.254-.27 2.66c-.08.936-.16 1.9-.23 2.885s-.13 1.988-.19 3.009-.1 2.033-.14 3.037h1.55c.05-1.562.12-3.11.19-4.642s.18-2.957.3-4.273c.1.19.25.464.43.82s.37.761.58 1.212.42.931.66 1.439.45 1 .66 1.479.4.925.58 1.339.32.753.43 1.02h1.28c.11-.268.25-.607.43-1.02s.37-.86.58-1.339.43-.971.66-1.479.45-.988.66-1.439.4-.855.58-1.212.32-.63.43-.82c.12 1.314.22 2.739.29 4.273s.14 3.081.2 4.642h1.55q-.285-5.991-.83-11.591zm-8.88-8.635h15.38v-.023a8.647 8.647 0 0 0 8.69-8.571 8.793 8.793 0 0 0 -.71-3.391l-7.87-18.042a2.542 2.542 0 0 1 -.19-.942 2.4 2.4 0 0 1 2.4-2.378h3.97a2.376 2.376 0 0 0 0-4.752h-15.41a8.629 8.629 0 0 0 -8.67 8.569 8.792 8.792 0 0 0 .71 3.39l7.88 18.043a2.762 2.762 0 0 1 .2.943 2.4 2.4 0 0 1 -2.4 2.385h-3.98a2.385 2.385 0 0 0 -.1 4.769zm61.44-26.68h.87a2.4 2.4 0 0 1 2.42 2.377v24.28h17.32l.01-23.217a2.4 2.4 0 0 1 1.17-2.036c1.31-.789 3.3-1.525 3.3-3.317a2.411 2.411 0 0 0 -2.42-2.376c-.96 0-2.06-.15-2.06-1.431v-3.334c0-1.308-.98-3.034-3.63-2.087-5.6 4.084-11.46 6.507-17.18 6.842a2.18 2.18 0 0 0 -1.97 2.154 2.149 2.149 0 0 0 2.17 2.145zm-41.02 40.539c-.37-.937-.73-1.832-1.09-2.684s-.73-1.7-1.12-2.534h-1.45c-.4.833-.77 1.678-1.13 2.534s-.72 1.75-1.08 2.684-.74 1.929-1.12 2.969-.79 2.173-1.22 3.4h1.64l1.03-2.961h5.12c.17.5.34 1 .5 1.481s.34.978.52 1.48h1.74q-.66-1.832-1.23-3.4t-1.11-2.969zm-5.09 2.069q.51-1.457 1.02-2.819c.34-.909.71-1.782 1.09-2.618.37.836.72 1.708 1.06 2.618s.69 1.849 1.04 2.819zm21.45-1.105h4.73v-1.354h-4.73v-3.446h5.32v-1.388h-6.9v11.591h7.3v-1.389h-5.72zm-5.25-4.858a5.321 5.321 0 0 0 -1.98-1.087 8.628 8.628 0 0 0 -2.55-.36c-.45 0-.96.02-1.51.059a8.667 8.667 0 0 0 -1.49.226v11.24a8.766 8.766 0 0 0 1.49.226c.55.038 1.06.058 1.51.058a8.627 8.627 0 0 0 2.55-.359 5.335 5.335 0 0 0 1.98-1.087 4.829 4.829 0 0 0 1.29-1.84 6.881 6.881 0 0 0 .46-2.617 6.881 6.881 0 0 0 -.46-2.617 4.821 4.821 0 0 0 -1.29-1.842zm-1.04 7.762a4.4 4.4 0 0 1 -3.36 1.179c-.44 0-.79-.006-1.03-.017s-.42-.022-.52-.034v-8.863c.1-.011.27-.021.52-.033s.59-.017 1.03-.017a4.389 4.389 0 0 1 3.36 1.179 5.469 5.469 0 0 1 0 6.606zm71.33-7.686h3.56v10.183h1.58v-10.185h3.55v-1.4h-8.69v1.406zm51.09-43.88v-9.677l-8.49 4.835zm0 12.088v-9.665l-8.49 4.834zm-2.75 13.571a4.4 4.4 0 0 0 -2.14-.56 4.343 4.343 0 0 0 -2.13.56 3.994 3.994 0 0 0 -1.6 1.6 4.377 4.377 0 0 0 -.02 4.346 4.169 4.169 0 0 0 1.6 1.6 4.31 4.31 0 0 0 4.3 0 4.038 4.038 0 0 0 1.6-1.6 4.324 4.324 0 0 0 .57-2.163 4.4 4.4 0 0 0 -.58-2.183 4.05 4.05 0 0 0 -1.6-1.6zm.88 5.526a3.319 3.319 0 0 1 -1.28 1.292 3.451 3.451 0 0 1 -3.46 0 3.306 3.306 0 0 1 -1.28-1.292 3.55 3.55 0 0 1 .01-3.5 3.283 3.283 0 0 1 1.29-1.286 3.494 3.494 0 0 1 3.42 0 3.14 3.14 0 0 1 1.29 1.286 3.5 3.5 0 0 1 .01 3.5zm-1.86-.909a1.936 1.936 0 0 0 -.31-.355 1 1 0 0 0 -.32-.172 1.447 1.447 0 0 0 .91-.441 1.179 1.179 0 0 0 .33-.851 1.388 1.388 0 0 0 -.17-.663 1.154 1.154 0 0 0 -.43-.439 1.8 1.8 0 0 0 -.72-.185c-.11-.008-.59-.012-1.46-.012h-.94v4.605h.94v-1.894h.24a1.019 1.019 0 0 1 .64.2 3.044 3.044 0 0 1 .64.949l.39.748h1.15l-.55-.929a6.217 6.217 0 0 0 -.34-.561zm-.8-1.19a4.694 4.694 0 0 1 -1 .062h-.38v-1.258h.38a4.671 4.671 0 0 1 1 .063.623.623 0 0 1 .31.218.531.531 0 0 1 .11.342.581.581 0 0 1 -.42.573zm-60.07 22.2c-.29-.438-.56-.838-.83-1.2s-.48-.654-.66-.878a3.48 3.48 0 0 0 1.75-1.219 3.242 3.242 0 0 0 .6-1.973 3.186 3.186 0 0 0 -1.25-2.743 6.053 6.053 0 0 0 -3.63-.92c-.45 0-.96.02-1.5.059a8.38 8.38 0 0 0 -1.49.226v11.425h1.58v-4.533h1.86c.15 0 .29 0 .43-.017.21.254.44.554.7.9s.51.716.77 1.112.52.809.78 1.245.49.865.71 1.289h1.72a12.356 12.356 0 0 0 -.71-1.389c-.27-.48-.55-.94-.83-1.38zm-1.74-3.5a3.327 3.327 0 0 1 -1.1.317 11.686 11.686 0 0 1 -1.47.084h-1.13v-4.364c.36-.034.88-.05 1.55-.05a6.75 6.75 0 0 1 1.2.1 2.838 2.838 0 0 1 .98.351 1.918 1.918 0 0 1 .66.685 2.161 2.161 0 0 1 .24 1.088 2.208 2.208 0 0 1 -.24 1.128 1.665 1.665 0 0 1 -.69.666zm68.47-46.581 8.5 4.835v-9.678zm-.71 10.878 8.51-4.834-8.51-4.834zm8.51-16.928-8.51-4.832v9.679zm-19.14 1.207v9.678l8.5-4.835zm-43.95 47.366a4.768 4.768 0 0 0 -1.7-1.146 5.5 5.5 0 0 0 -2.06-.385 5.705 5.705 0 0 0 -2.1.385 4.906 4.906 0 0 0 -1.73 1.146 5.619 5.619 0 0 0 -1.17 1.9 8.233 8.233 0 0 0 0 5.252 5.638 5.638 0 0 0 1.17 1.9 4.89 4.89 0 0 0 1.73 1.145 5.705 5.705 0 0 0 2.1.385 5.5 5.5 0 0 0 2.06-.385 4.679 4.679 0 0 0 1.7-1.145 5.512 5.512 0 0 0 1.17-1.9 8.279 8.279 0 0 0 0-5.252 5.5 5.5 0 0 0 -1.17-1.895zm-.34 6.441a4.258 4.258 0 0 1 -.74 1.463 3.238 3.238 0 0 1 -1.17.928 3.525 3.525 0 0 1 -1.55.327 3.569 3.569 0 0 1 -1.55-.327 3.326 3.326 0 0 1 -1.18-.928 4.267 4.267 0 0 1 -.74-1.463 6.532 6.532 0 0 1 -.26-1.915 6.528 6.528 0 0 1 .26-1.915 4.258 4.258 0 0 1 .74-1.463 3.293 3.293 0 0 1 1.18-.928 3.837 3.837 0 0 1 3.1 0 3.217 3.217 0 0 1 1.17.928 4.249 4.249 0 0 1 .74 1.463 7.116 7.116 0 0 1 0 3.835zm36.47-54.444a4.325 4.325 0 0 0 -3.43 1.537c-2 1.729-4.54 3.148-9.72 4.72a2.388 2.388 0 0 0 -1.77 2.292v29.537h17.33v-35.706a2.4 2.4 0 0 0 -2.41-2.375zm-22.47 52.932h4.72v-1.354h-4.72v-3.446h5.31v-1.388h-6.9v11.591h7.31v-1.389h-5.72zm16.02-4.782h3.56v10.188h1.58v-10.185h3.55v-1.4h-8.69v1.406zm-2.28 8.774a5.91 5.91 0 0 1 -1.81.235 3.87 3.87 0 0 1 -1.66-.335 3.2 3.2 0 0 1 -1.18-.945 4.215 4.215 0 0 1 -.71-1.463 7.528 7.528 0 0 1 -.24-1.89 7 7 0 0 1 .27-1.932 4.107 4.107 0 0 1 .78-1.463 3.353 3.353 0 0 1 1.22-.92 3.922 3.922 0 0 1 1.61-.318 4.518 4.518 0 0 1 .84.076 5.35 5.35 0 0 1 .77.192q.345.117.63.234a2.256 2.256 0 0 1 .42.218l.46-1.338c-.12-.073-.24-.14-.36-.2a4.922 4.922 0 0 0 -.68-.268 7.446 7.446 0 0 0 -.98-.234 7.156 7.156 0 0 0 -1.26-.1 5.508 5.508 0 0 0 -2.09.4 4.963 4.963 0 0 0 -1.71 1.171 5.5 5.5 0 0 0 -1.16 1.9 7.337 7.337 0 0 0 -.44 2.584 8.1 8.1 0 0 0 .39 2.584 5.2 5.2 0 0 0 1.08 1.9 4.668 4.668 0 0 0 1.68 1.171 5.682 5.682 0 0 0 2.17.4 9.218 9.218 0 0 0 2.3-.284 5.726 5.726 0 0 0 .73-.242 2.479 2.479 0 0 0 .41-.21l-.41-1.337a8.3 8.3 0 0 1 -1.07.419zm-19.67-47.511v.007c-4.12-1.125-8.88-1.129-12.7.963a14.357 14.357 0 0 0 -8.3 12.883v1.266a14.416 14.416 0 0 0 8.24 12.9c7.47 2.7 12.19 1.945 19.34-.272a1.519 1.519 0 0 0 -.46-2.973h-.13c-2.19.19-4.55.567-6.73.567a5.828 5.828 0 0 1 -5.33-3.529 14.075 14.075 0 0 1 -.95-3.04.949.949 0 0 1 .96-.945h14.43a1.916 1.916 0 0 0 1.92-1.914v-2.242a14.312 14.312 0 0 0 -10.29-13.666zm-.32 12.1a.962.962 0 0 1 -.96.945v.006h-5.28a.968.968 0 0 1 -.97-.951v-.048a31.8 31.8 0 0 1 2.33-6.915c.93-1.606 1.7-1.617 2.54 0a41.17 41.17 0 0 1 2.33 6.915h.01zm-57.18-11.994h-15.27a1.622 1.622 0 0 0 -.27 3.223l6.92 1.092a3.355 3.355 0 0 1 2.84 3.289v1.923h-8.19c-4.77 0-8.66 2.794-8.66 9.414s3.89 9.629 8.66 9.629h3.38l4.81-1.43v1.43h14.45v-20a8.644 8.644 0 0 0 -8.67-8.568zm-5.78 23.328c-2.1-.626-6.01-2.97-6.01-4.758s3.89-4.132 6.01-4.757z" fill="#2b2b2b" fill-rule="evenodd" transform="translate(-1026.03 -443)"/>
</svg>